<?xml version="1.0" encoding="utf-8"?>
<!-- Generator: Adobe Illustrator 16.0.0, SVG Export Plug-In . SVG Version: 6.00 Build 0)  -->
<!DOCTYPE svg PUBLIC "-//W3C//DTD SVG 1.1//EN" "http://www.w3.org/Graphics/SVG/1.1/DTD/svg11.dtd">
<svg version="1.1" id="Layer_1" xmlns="http://www.w3.org/2000/svg" xmlns:xlink="http://www.w3.org/1999/xlink" x="0px" y="0px"
	 width="548.789px" height="118.836px" viewBox="0 0 548.789 118.836" enable-background="new 0 0 548.789 118.836"
	 xml:space="preserve">
<g>
	<path fill="#323230" d="M227.255,11.222c0.289,1.203,0.622,3.577,0.995,7.123c0.374,3.546,0.56,6.127,0.56,7.745
		c0,0.622-0.146,1.389-0.436,2.302c-1.783-0.042-3.297-0.208-4.541-0.498c-3.152-4.852-5.372-7.9-6.656-9.144
		c-2.405-2.322-5.496-4.292-9.269-5.909c-2.778-1.203-5.972-1.804-9.579-1.804c-6.927,0-13.023,3.108-18.288,9.323
		c-5.267,6.214-7.9,15.456-7.9,27.72c0,5.758,1.026,11.353,3.079,16.781c2.053,5.426,5.132,9.683,9.237,12.77
		c4.105,3.088,8.936,4.631,14.494,4.631c2.695,0,5.557-0.351,8.584-1.054c1.533-0.329,2.777-0.989,3.732-1.979
		c0.662-0.662,1.098-1.652,1.306-2.974c0.332-2.396,0.498-5.802,0.498-10.221c0-4.294-0.062-7.247-0.187-8.858
		c-0.291-0.618-0.57-1.02-0.84-1.207c-0.271-0.185-1.11-0.485-2.519-0.898l-5.537-1.487c-1.204-0.29-1.95-0.643-2.239-1.057
		c-0.084-0.539-0.124-0.933-0.124-1.182c0-0.581,0.145-1.389,0.435-2.426c0.747-0.249,1.265-0.373,1.555-0.373
		c4.519,0,8.438,0.149,11.757,0.448c1.16,0.075,2.426,0.112,3.794,0.112l9.828-0.125l4.168-0.125c0.498-0.041,1.887,0,4.167,0.125
		c0.041,1.079,0.062,1.991,0.062,2.737c0,0.457-0.146,0.975-0.436,1.556c-0.706,0.423-1.908,0.949-3.608,1.584
		c-1.701,0.634-2.654,1.055-2.861,1.267c-0.333,0.332-0.56,0.851-0.685,1.553c-0.125,0.702-0.187,3.168-0.187,7.391
		c0,4.885-0.021,7.805-0.062,8.756c-0.166,3.064-0.249,4.803-0.249,5.217c0,1.532-0.208,2.484-0.622,2.857
		c-1.161,1.158-4.759,2.474-10.792,3.943c-6.034,1.469-13.054,2.204-21.056,2.204c-5.599,0-10.461-0.446-14.587-1.338
		c-4.127-0.892-7.642-2.208-10.544-3.95c-3.898-2.322-7.237-5.142-10.015-8.46c-2.778-3.317-4.852-6.903-6.221-10.761
		c-1.907-5.474-2.861-10.928-2.861-16.36c0-6.096,1.409-12.275,4.23-18.537c2.074-4.52,4.986-8.595,8.74-12.223
		c3.753-3.628,8.45-6.521,14.089-8.678c5.639-2.156,11.777-3.234,18.413-3.234c0.829,0,2.177,0.104,4.043,0.311
		c5.059,0,9.787,0.632,14.183,1.897C220.702,7.977,224.352,9.48,227.255,11.222z"/>
	<path fill="#323230" d="M242.109,69.135c1.244-0.249,2.155-0.374,2.737-0.374c0.289,0,0.725,0.021,1.306,0.062l0.56,0.622
		c2.24,3.938,3.71,6.324,4.417,7.152c1.452,1.7,2.882,3.069,4.292,4.105c0.954,0.664,2.447,1.348,4.479,2.053
		c1.369,0.498,2.82,0.747,4.354,0.747c2.612,0,4.852-0.84,6.717-2.521c1.866-1.68,2.799-3.493,2.799-5.442
		c0-1.326-0.353-2.457-1.058-3.39c-0.705-0.934-2.115-1.855-4.229-2.77c-1.037-0.456-3.639-1.201-7.807-2.238
		s-6.688-1.722-7.558-2.054c-1.95-0.746-3.68-1.782-5.194-3.11c-1.515-1.326-2.666-2.818-3.453-4.479
		c-1.079-2.364-1.617-4.396-1.617-6.096c0-3.152,0.456-5.733,1.369-7.745c0.911-2.011,2.198-3.784,3.856-5.318
		c1.203-1.161,3.017-2.219,5.443-3.172c2.426-0.954,5.028-1.431,7.807-1.431c3.94,0,7.402,0.27,10.387,0.809
		c2.986,0.539,5.517,1.348,7.589,2.426c0.249,0.954,0.602,3.152,1.059,6.594c0.455,3.442,0.684,5.474,0.684,6.096
		c0,0.291-0.062,0.602-0.186,0.934c-1.08,0.332-1.971,0.498-2.676,0.498c-0.414,0-1.017-0.042-1.805-0.125
		c-0.373-0.581-0.871-1.452-1.493-2.613c-1.991-3.691-4.033-6.293-6.126-7.807c-2.094-1.514-4.51-2.271-7.247-2.271
		c-2.861,0-5.267,0.83-7.215,2.488c-1.41,1.203-2.115,2.841-2.115,4.914c0,1.369,0.736,2.758,2.208,4.168
		c1.431,1.451,3.954,2.55,7.57,3.297c5.444,1.203,9.454,2.405,12.034,3.608c3.739,1.742,6.368,3.794,7.883,6.158
		c1.519,2.363,2.276,5.102,2.276,8.211c0,4.811-1.812,8.822-5.44,12.036c-3.631,3.214-8.927,4.821-15.895,4.821
		c-0.912,0-3.297-0.207-7.153-0.623c-1.742-0.207-3.794-0.621-6.158-1.243c-0.582-0.166-2.094-0.769-4.541-1.804
		c-0.457-0.25-0.777-0.551-0.964-0.902s-0.467-2.084-0.84-5.194C242.503,73.157,242.15,70.13,242.109,69.135z"/>
	<path fill="#323230" d="M288.312,86.552l-0.123-4.044l7.028-0.933c1.036-0.29,1.753-0.716,2.147-1.275s0.59-1.813,0.59-3.763
		v-0.686c0-0.498,0.033-1.398,0.095-2.705c0.062-1.308,0.093-2.457,0.093-3.453c0-0.787-0.062-2.301-0.188-4.541l0.095-3.109
		l-0.095-2.924l0.188-10.139c0-1.286-0.125-2.612-0.377-3.981c-0.457-0.622-1.293-1.161-2.505-1.617
		c-1.21-0.456-3.319-0.788-6.325-0.996v-3.483c4.271-0.249,8.023-1.14,11.26-2.675c2.197-0.995,4.582-2.757,7.152-5.287h4.168
		c0.165,5.142,0.248,11.819,0.248,20.03l-0.436,25.378c0,1.742,0.083,3.318,0.249,4.729c1.286,0.456,3.38,0.912,6.283,1.368
		c1.118,0.166,2.011,0.373,2.675,0.621l-0.125,3.422c-1.115,0.042-1.944,0.062-2.483,0.062c-0.618,0-1.571-0.042-2.854-0.124
		c-4.223-0.208-9.874-0.312-16.95-0.312c-2.025,0-3.994,0.071-5.898,0.218C290.32,86.479,289.02,86.552,288.312,86.552z
		 M297.021,12.342c0-2.24,0.727-4.075,2.179-5.505c1.45-1.431,3.317-2.146,5.598-2.146c2.447,0,4.479,0.757,6.097,2.271
		c1.617,1.514,2.427,3.224,2.427,5.132c0,1.41-0.319,2.82-0.962,4.23c-0.646,1.41-1.659,2.54-3.05,3.39
		c-1.391,0.85-2.812,1.275-4.263,1.275c-1.99,0-3.822-0.851-5.503-2.551C297.864,16.738,297.021,14.706,297.021,12.342z"/>
	<path fill="#323230" d="M336.945,94.887c-5.6-1.41-9.331-3.059-11.196-4.945c-1.866-1.887-2.8-3.99-2.8-6.312
		c0-1.865,0.498-3.297,1.493-4.292s5.536-3.795,13.623-8.397c-4.105-2.446-6.927-4.811-8.46-7.092
		c-1.991-2.984-2.986-5.93-2.986-8.833c0-2.612,0.539-5.391,1.617-8.335c2.322-4.23,5.508-7.392,9.551-9.486
		c4.044-2.094,9.256-3.142,15.643-3.142c2.571,0,4.79,0.166,6.655,0.498c0.871,0.166,2.322,0.622,4.354,1.368l2.363,0.871
		c2.115,1.327,3.96,2.695,5.536,4.105c3.566-0.705,6.448-1.431,8.646-2.177c1.534-0.456,2.86-0.684,3.98-0.684
		c0.829,0,1.492,0.353,1.99,1.058c0.497,0.705,0.746,2.363,0.746,4.976c0,2.281-0.312,3.867-0.934,4.759
		c-0.621,0.892-1.265,1.337-1.929,1.337c-0.249,0-0.975-0.291-2.177-0.871c-2.82-1.286-5.08-1.97-6.78-2.053
		c0.995,2.861,1.492,5.578,1.492,8.149c0,3.027-0.879,5.918-2.642,8.676c-1.763,2.759-4.181,4.945-7.249,6.562
		c-4.271,2.281-8.542,3.422-12.813,3.422c-2.737,0-4.604-0.062-5.599-0.188c-1.451-0.166-3.483-0.539-6.097-1.119
		c-3.524,1.949-5.991,3.607-7.401,4.977c-0.705,0.663-1.059,1.451-1.059,2.363c0,0.83,0.365,1.576,1.092,2.238
		c0.726,0.664,1.937,1.121,3.637,1.369c0.332,0.041,0.788,0.125,1.368,0.25c2.197,0.164,5.122,0.248,8.771,0.248
		c0.457,0,1.93-0.062,4.417-0.188c0.705-0.041,1.308-0.062,1.804-0.062c9.911,0,16.857,1.576,20.84,4.729
		c3.938,3.15,5.908,7.008,5.908,11.568c0,2.447-0.691,4.843-2.082,7.186c-1.389,2.344-3.268,4.251-5.631,5.725
		c-2.363,1.472-5.771,2.787-10.229,3.948s-9.24,1.742-14.341,1.742c-5.517,0-10.458-0.539-14.833-1.617
		c-4.375-1.077-7.811-2.841-10.298-5.288c-1.907-1.824-2.861-3.772-2.861-5.847c0-2.032,0.801-3.847,2.396-5.442
		C326.069,99.044,330.228,97.126,336.945,94.887z M356.042,114.605c6.138-0.705,10.906-2.363,14.308-4.977
		c2.156-1.699,3.234-3.38,3.234-5.039c0-0.912-0.229-1.804-0.685-2.675s-1.273-1.731-2.455-2.581
		c-1.183-0.852-2.521-1.441-4.015-1.773c-2.114-0.414-4.914-0.621-8.397-0.621l-7.65-0.125c-6.719,0-11.227,0.83-13.526,2.488
		c-2.303,1.658-3.455,3.856-3.455,6.594c0,1.451,0.643,2.894,1.929,4.324c1.285,1.43,3.442,2.561,6.47,3.389
		c3.026,0.83,6.282,1.244,9.767,1.244C352.559,114.854,354.052,114.771,356.042,114.605z M352.496,69.881
		c2.779,0,5.155-1.191,7.125-3.576s2.952-6.086,2.952-11.104c0-6.635-0.879-11.093-2.643-13.374
		c-1.762-2.281-4.241-3.421-7.436-3.421c-0.414,0-1.513,0.104-3.296,0.311c-1.991,0.374-3.805,1.783-5.441,4.23
		c-1.637,2.447-2.459,5.723-2.459,9.828c0,1.12,0.146,3.338,0.437,6.656c0.124,1.41,0.436,2.633,0.933,3.67
		c0.705,1.616,1.473,2.871,2.302,3.764c0.829,0.892,1.94,1.617,3.33,2.177C349.688,69.602,351.087,69.881,352.496,69.881z"/>
	<path fill="#323230" d="M387.692,82.391c0.331-0.171,0.786-0.273,1.367-0.316c2.446-0.166,4.396-0.602,5.848-1.305
		c0.291-0.125,0.469-0.395,0.53-0.81c0.062-0.413,0.175-4.18,0.341-11.303v-3.603l0.062-6.396l-0.062-6.646v-1.491
		c0-1.944-0.443-3.384-1.335-4.314c-0.893-0.931-3.228-1.937-7-3.013v-2.551c0.788-0.207,1.721-0.436,2.799-0.684
		c3.814-0.788,6.967-1.908,9.455-3.359c1.906-1.12,3.795-2.799,5.661-5.039h3.421v0.995l0.187,4.976l-0.062,2.302l0.125,1.12
		c3.938-3.11,7.228-5.163,9.86-6.158c2.634-0.995,5.652-1.493,9.054-1.493c3.275,0,6.439,0.705,9.487,2.115s5.586,3.774,7.622,7.091
		c2.94-2.843,5.407-4.839,7.398-5.992c1.368-0.782,3.247-1.472,5.632-2.069c2.38-0.597,4.632-0.896,6.746-0.896
		c5.765,0,10.322,1.74,13.682,5.219c3.358,3.521,5.038,8.281,5.038,14.286v9.877c0,2.03-0.062,5.53-0.187,10.5v4.782
		c0,0.829,0.249,1.638,0.746,2.425c1.617,0.689,3.007,1.135,4.168,1.336c0.83,0.125,1.616,0.406,2.363,0.854
		c0.083,0.761,0.188,1.395,0.312,1.898l-0.062,1.256c-1.162,0.211-1.99,0.315-2.487,0.315c-0.332,0-1.336-0.094-3.017-0.28
		c-1.68-0.186-3.807-0.278-6.378-0.278c-6.262,0-11.238,0.187-14.929,0.56c-0.29-1.031-0.437-1.857-0.437-2.478l0.062-0.867
		c0.539-0.284,2.322-0.993,5.35-2.129c0.539-0.539,0.851-1.015,0.934-1.429c0.208-1.035,0.312-3.25,0.312-6.646l-0.312-17.515
		c-0.041-2.94-0.271-5.373-0.686-7.299c-0.414-1.924-1.022-3.436-1.832-4.533c-0.809-1.099-1.898-1.999-3.269-2.702
		c-1.368-0.705-2.799-1.058-4.292-1.058c-2.322,0-4.687,0.649-7.091,1.945c-2.405,1.296-4.541,3.26-6.407,5.893l-0.125,1.804
		l0.188,7.962l-0.125,6.532v6.22l-0.062,5.536c0,2.736,0.27,4.354,0.809,4.854c0.83,0.787,2.862,1.348,6.098,1.68l1.929,0.632
		c0.331,0.969,0.497,1.726,0.497,2.271c0,0.295-0.083,0.799-0.249,1.515l-1.8-0.062h-2.483l-1.303-0.062
		c-2.939-0.291-5.984-0.456-9.127-0.498l-6.645-0.124c-1.617,0-4.413,0.187-8.386,0.56l-1.111-0.188l-0.124-3.725
		c1.244-0.351,3.487-0.644,6.728-0.877c0.207-0.041,0.477-0.125,0.809-0.248c0.452-0.541,0.723-0.996,0.806-1.369
		c0.202-0.83,0.307-2.51,0.307-5.039l-0.062-12.627l0.188-3.359c0-6.469-0.229-10.471-0.684-12.005
		c-0.585-1.991-1.801-3.618-3.649-4.883c-1.85-1.265-4.064-1.897-6.645-1.897c-3.366,0-6.3,0.798-8.791,2.395
		c-2.496,1.597-3.932,3.017-4.306,4.261c-0.041,0.498-0.062,0.871-0.062,1.12l0.124,0.622v0.622c0,0.373-0.124,0.954-0.373,1.742
		l0.187,17.853l0.062,9.33c0,0.332,0.062,0.871,0.187,1.617l0.312,0.934c1.148,0.363,2.136,0.624,2.957,0.786
		c1.521,0.321,2.671,0.684,3.454,1.086c0.12,0.705,0.183,1.2,0.183,1.491c0,0.539-0.161,1.304-0.493,2.297
		c-0.664,0.042-1.141,0.062-1.431,0.062c-0.456,0-2.53-0.169-6.222-0.505l-6.779-0.056c-3.234,0-7.157,0.207-11.761,0.622
		l-1.805-0.062c-0.083-0.662-0.166-1.43-0.249-2.298C387.381,83.632,387.484,83.093,387.692,82.391z"/>
	<path fill="#323230" d="M546.612,74.857l1.431,0.933c0.373,0.29,0.602,0.644,0.684,1.058l0.062,0.312
		c-0.995,3.69-2.302,6.231-3.919,7.62c-1.617,1.39-3.624,2.084-6.029,2.084c-2.446,0-4.55-0.674-6.312-2.021
		c-1.763-1.348-3.371-3.722-4.818-7.122c-1.787,3.151-4.296,5.525-7.531,7.122c-3.233,1.598-7.193,2.396-11.881,2.396
		c-4.312,0-7.489-0.902-9.521-2.706s-3.048-4.179-3.048-7.123c0-1.368,0.303-2.759,0.903-4.167c0.603-1.41,1.575-2.811,2.924-4.199
		s3.514-2.913,6.498-4.572c0.456-0.248,2.032-0.953,4.729-2.115l15.489-6.22c0.124-1.576,0.187-3.173,0.187-4.79
		c0-5.598-0.685-9.414-2.053-11.445c-0.83-1.244-2.281-1.866-4.354-1.866c-2.072,0-3.98,0.394-5.723,1.182
		c-1.742,0.788-3.007,1.804-3.795,3.048c-0.58,0.913-1.078,2.634-1.493,5.163c-0.29,1.825-0.56,2.882-0.809,3.173
		c-0.622,0.788-1.75,1.503-3.389,2.146c-1.638,0.643-2.749,1.109-3.33,1.4c-2.238,1.078-4.021,1.617-5.35,1.617
		c-0.581-0.498-0.871-1.203-0.871-2.115c0-2.364,0.498-4.396,1.493-6.096c1.493-2.405,3.745-4.738,6.751-6.998
		c3.007-2.26,5.813-3.846,8.427-4.758c3.566-1.161,7.921-1.742,13.063-1.742c3.316,0,6.17,0.612,8.555,1.835
		c2.385,1.224,4.044,3.038,4.977,5.443c0.934,2.405,1.397,6.739,1.397,13l-0.124,10.265l0.124,7.525v1.929
		c0,1.741,0.236,2.935,0.705,3.576s1.07,0.965,1.804,0.965c0.448,0,0.834-0.125,1.161-0.374l1.866-2.923L546.612,74.857z
		 M526.209,60.426c-2.364,0.788-5.026,2.104-7.991,3.95c-2.965,1.845-5.03,3.701-6.19,5.567c-0.829,1.367-1.244,3.048-1.244,5.037
		c0,1.783,0.539,3.256,1.617,4.418c1.077,1.16,2.321,1.74,3.731,1.74c2.322,0,4.292-0.662,5.909-1.99
		c2.198-1.782,3.482-3.203,3.855-4.26c0.375-1.059,0.562-4.055,0.562-8.99C526.458,64.075,526.375,62.25,526.209,60.426z"/>
</g>
<g>
	<path fill="#C21C13" d="M37.604,60.99c0.155-0.079,0.367-0.127,0.639-0.147c1.142-0.077,2.051-0.28,2.729-0.61
		c0.135-0.058,0.218-0.183,0.247-0.375c0.029-0.195,0.082-1.951,0.16-5.275v-1.682l0.029-2.983l-0.029-3.102v-0.697
		c0-0.908-0.208-1.578-0.624-2.013c-0.417-0.436-1.505-0.904-3.266-1.406v-1.19c0.367-0.097,0.802-0.203,1.306-0.319
		c1.78-0.367,3.251-0.889,4.413-1.567c0.889-0.522,1.771-1.306,2.642-2.352h1.596v0.464l0.087,2.322l-0.029,1.074l0.058,0.522
		c1.839-1.451,3.373-2.409,4.601-2.874c1.229-0.464,2.638-0.697,4.225-0.697c1.529,0,3.006,0.33,4.428,0.987
		c1.422,0.657,2.607,1.76,3.557,3.31c1.373-1.327,2.524-2.258,3.453-2.797c0.639-0.365,1.515-0.687,2.627-0.964
		c1.111-0.28,2.161-0.419,3.148-0.419c2.69,0,4.818,0.812,6.385,2.434c1.567,1.644,2.351,3.867,2.351,6.668v4.609
		c0,0.947-0.029,2.582-0.087,4.899v2.233c0,0.386,0.116,0.763,0.349,1.13c0.754,0.321,1.402,0.531,1.945,0.624
		c0.387,0.059,0.754,0.191,1.103,0.398c0.038,0.354,0.087,0.647,0.145,0.885l-0.029,0.587c-0.542,0.099-0.929,0.147-1.161,0.147
		c-0.156,0-0.625-0.043-1.408-0.131c-0.784-0.088-1.776-0.132-2.976-0.132c-2.922,0-5.245,0.089-6.967,0.263
		c-0.136-0.48-0.203-0.867-0.203-1.157l0.029-0.404c0.25-0.133,1.083-0.462,2.496-0.993c0.251-0.251,0.396-0.473,0.436-0.667
		c0.097-0.481,0.145-1.516,0.145-3.1l-0.145-8.173c-0.02-1.373-0.126-2.507-0.319-3.407c-0.194-0.898-0.479-1.603-0.856-2.115
		c-0.377-0.512-0.885-0.933-1.524-1.261c-0.639-0.33-1.306-0.493-2.003-0.493c-1.084,0-2.188,0.303-3.309,0.908
		c-1.123,0.604-2.119,1.52-2.99,2.75l-0.058,0.842l0.087,3.715l-0.058,3.048v2.903l-0.029,2.583c0,1.277,0.125,2.032,0.377,2.264
		c0.387,0.367,1.335,0.629,2.845,0.784l0.9,0.294c0.155,0.452,0.232,0.805,0.232,1.061c0,0.14-0.04,0.373-0.116,0.707l-0.841-0.028
		h-1.158l-0.609-0.028c-1.372-0.136-2.792-0.215-4.26-0.232l-3.1-0.059c-0.753,0-2.058,0.088-3.913,0.262l-0.518-0.09l-0.058-1.736
		c0.581-0.162,1.626-0.299,3.138-0.409c0.096-0.019,0.223-0.058,0.378-0.116c0.21-0.25,0.336-0.464,0.374-0.638
		c0.097-0.388,0.144-1.172,0.144-2.352l-0.029-5.893l0.087-1.567c0-3.019-0.107-4.887-0.32-5.603
		c-0.271-0.929-0.839-1.688-1.702-2.279c-0.864-0.591-1.896-0.885-3.1-0.885c-1.572,0-2.94,0.373-4.104,1.118
		c-1.164,0.745-1.834,1.408-2.008,1.988c-0.02,0.232-0.029,0.407-0.029,0.523l0.058,0.29v0.29c0,0.174-0.058,0.446-0.174,0.813
		l0.087,8.332l0.029,4.354c0,0.156,0.029,0.407,0.087,0.755l0.144,0.436c0.537,0.17,0.997,0.289,1.381,0.367
		c0.709,0.148,1.246,0.318,1.611,0.508c0.057,0.328,0.086,0.561,0.086,0.694c0,0.251-0.077,0.607-0.23,1.071
		c-0.31,0.02-0.532,0.029-0.667,0.029c-0.212,0-1.181-0.08-2.903-0.234l-3.165-0.027c-1.51,0-3.34,0.098-5.488,0.291l-0.842-0.029
		c-0.04-0.309-0.078-0.666-0.116-1.071C37.459,61.57,37.507,61.318,37.604,60.99z"/>
	<path fill="#C21C13" d="M99.673,43.241h-1.76c-0.418,0-0.744-0.004-0.982-0.017c-0.372-0.01-0.598-0.017-0.677-0.017l-1.151,0.052
		l-0.305-0.035c-0.271-0.033-0.604-0.05-0.999-0.05c-0.372,0-1.01,0.017-1.913,0.05c-0.428,0.012-0.688,0.017-0.778,0.017
		L89.4,43.208l-2.742,0.033h-1.083V42.09c1.602-2.028,2.807-3.446,3.613-4.25c0.807-0.807,1.954-2.146,3.444-4.017
		c1.038-1.286,1.751-2.434,2.141-3.45c0.389-1.014,0.583-1.893,0.583-2.637c0-0.834-0.121-1.584-0.364-2.248
		c-0.243-0.666-0.672-1.19-1.287-1.574c-0.615-0.383-1.284-0.574-2.005-0.574c-0.734,0-1.394,0.18-1.98,0.542
		c-0.587,0.36-1.015,0.819-1.287,1.37c-0.417,0.803-0.67,1.636-0.761,2.505h-1.236c-0.033-0.485-0.051-0.894-0.051-1.221
		c0-1.097,0.423-2.148,1.269-3.156c1.309-1.562,3.154-2.341,5.534-2.341c1.986,0,3.548,0.562,4.688,1.684
		c1.139,1.122,1.709,2.536,1.709,4.24c0,0.676-0.108,1.312-0.321,1.912c-0.305,0.813-0.675,1.518-1.108,2.115
		c-0.435,0.6-1.627,1.873-3.58,3.826c-1.41,1.41-3.177,3.079-5.297,5.01l1.875,0.033l3.075-0.069l1.792,0.036
		c0.946,0,1.574-0.102,1.884-0.305c0.309-0.203,0.594-0.682,0.854-1.438c0.056-0.181,0.157-0.452,0.304-0.813l1.134-0.066
		l0.22,0.066c0.056,0.091,0.084,0.176,0.084,0.255c0,0.18-0.028,0.404-0.084,0.676c-0.057,0.271-0.122,0.717-0.195,1.337
		C100.149,40.155,99.966,41.391,99.673,43.241z"/>
</g>
<g>
	<path fill="#C21C13" d="M83.648,110.786c-0.542,0-1.085-0.207-1.5-0.62L62.969,91.029c-1.235-1.232-3.95-2.354-5.696-2.354H6.336
		C2.843,88.675,0,85.832,0,82.338V6.337C0,2.843,2.843,0,6.336,0H127.34c3.494,0,6.337,2.843,6.337,6.337v76.001
		c0,3.494-2.843,6.337-6.337,6.337H87.231c-1.172,0-2.123-0.948-2.123-2.123c0-1.174,0.951-2.122,2.123-2.122h40.109
		c1.153,0,2.09-0.938,2.09-2.092V6.337c0-1.153-0.937-2.09-2.09-2.09H6.336c-1.153,0-2.09,0.938-2.09,2.09v76.001
		c0,1.153,0.937,2.092,2.09,2.092h50.937c2.902,0,6.64,1.543,8.695,3.594l19.18,19.138c0.831,0.829,0.833,2.173,0.004,3.002
		C84.737,110.579,84.193,110.786,83.648,110.786z"/>
</g>
</svg>
